<?xml version="1.0" encoding="utf-8"?>
<!-- Generator: Adobe Illustrator 26.2.1, SVG Export Plug-In . SVG Version: 6.00 Build 0)  -->
<svg version="1.1" id="Layer_1" xmlns="http://www.w3.org/2000/svg" xmlns:xlink="http://www.w3.org/1999/xlink" x="0px" y="0px"
	 viewBox="0 0 556.4 466.4" style="enable-background:new 0 0 556.4 466.4;" xml:space="preserve">
<style type="text/css">
	.st0{font-family:'ArialMT';}
	.st1{font-size:12px;}
	.st2{fill:none;stroke:#000000;stroke-miterlimit:10;}
	.st3{stroke:#000000;stroke-miterlimit:10;}
	.st4{fill:#FFFFFF;stroke:#000000;stroke-miterlimit:10;}
	.st5{fill:none;stroke:#000000;stroke-linecap:square;stroke-miterlimit:10;}
	.st6{fill:none;stroke:#000000;stroke-linecap:round;stroke-miterlimit:10;}
	.st7{fill:#020203;}
	.st8{fill:none;}
	.st9{font-size:8px;}
	.st10{font-size:13px;}
</style>
<text transform="matrix(1 0 0 1 26.5834 311.2922)"><tspan x="0" y="0" class="st0 st1">Personal computer</tspan><tspan x="18.4" y="14.4" class="st0 st1">(SSH client)</tspan></text>
<path class="st2" d="M108.3,261.7H53.2c-2.7,0-4.9-2.2-4.9-4.9v-46.9c0-2.7,2.2-4.9,4.9-4.9h55.1c2.7,0,4.9,2.2,4.9,4.9v46.9
	C113.2,259.5,111,261.7,108.3,261.7z"/>
<polygon class="st2" points="108.4,257.2 53.2,257.2 53.2,210.1 102,210.1 108.4,210.1 "/>
<path class="st2" d="M108.3,278.7H53.2c-2.7,0-4.9-2.2-4.9-4.9v-3c0-2.7,2.2-4.9,4.9-4.9h55.1c2.7,0,4.9,2.2,4.9,4.9v3
	C113.2,276.5,111,278.7,108.3,278.7z"/>
<ellipse class="st3" cx="106.1" cy="270.5" rx="1.3" ry="1.1"/>
<line class="st2" x1="71" y1="270.5" x2="54.2" y2="270.5"/>
<line class="st2" x1="113.2" y1="270.8" x2="453" y2="272.3"/>
<text transform="matrix(1 0 0 1 249.8291 261.6893)" class="st0 st1">Network</text>
<path class="st2" d="M518.5,264.5h-55.1c-2.7,0-4.9-2.2-4.9-4.9v-3c0-2.7,2.2-4.9,4.9-4.9h55.1c2.7,0,4.9,2.2,4.9,4.9v3
	C523.4,262.3,521.2,264.5,518.5,264.5z"/>
<ellipse class="st3" cx="516.3" cy="256.2" rx="1.3" ry="1.1"/>
<line class="st2" x1="481.2" y1="256.2" x2="464.4" y2="256.2"/>
<path class="st2" d="M518.5,251.6h-55.1c-2.7,0-4.9-2.2-4.9-4.9v-3c0-2.7,2.2-4.9,4.9-4.9h55.1c2.7,0,4.9,2.2,4.9,4.9v3
	C523.4,249.4,521.2,251.6,518.5,251.6z"/>
<ellipse class="st3" cx="516.3" cy="243.3" rx="1.3" ry="1.1"/>
<line class="st2" x1="481.2" y1="243.3" x2="464.4" y2="243.3"/>
<path class="st2" d="M518.5,277.5h-55.1c-2.7,0-4.9-2.2-4.9-4.9v-3c0-2.7,2.2-4.9,4.9-4.9h55.1c2.7,0,4.9,2.2,4.9,4.9v3
	C523.4,275.3,521.2,277.5,518.5,277.5z"/>
<ellipse class="st3" cx="516.3" cy="269.2" rx="1.3" ry="1.1"/>
<line class="st2" x1="481.2" y1="269.2" x2="464.4" y2="269.2"/>
<path class="st2" d="M518.5,225.7h-55.1c-2.7,0-4.9-2.2-4.9-4.9v-3c0-2.7,2.2-4.9,4.9-4.9h55.1c2.7,0,4.9,2.2,4.9,4.9v3
	C523.4,223.5,521.2,225.7,518.5,225.7z"/>
<ellipse class="st3" cx="516.3" cy="217.5" rx="1.3" ry="1.1"/>
<line class="st2" x1="481.2" y1="217.5" x2="464.4" y2="217.5"/>
<path class="st2" d="M518.5,212.8h-55.1c-2.7,0-4.9-2.2-4.9-4.9v-3c0-2.7,2.2-4.9,4.9-4.9h55.1c2.7,0,4.9,2.2,4.9,4.9v3
	C523.4,210.6,521.2,212.8,518.5,212.8z"/>
<ellipse class="st3" cx="516.3" cy="204.5" rx="1.3" ry="1.1"/>
<line class="st2" x1="481.2" y1="204.5" x2="464.4" y2="204.5"/>
<path class="st2" d="M518.5,238.7h-55.1c-2.7,0-4.9-2.2-4.9-4.9v-3c0-2.7,2.2-4.9,4.9-4.9h55.1c2.7,0,4.9,2.2,4.9,4.9v3
	C523.4,236.5,521.2,238.7,518.5,238.7z"/>
<ellipse class="st3" cx="516.3" cy="230.4" rx="1.3" ry="1.1"/>
<line class="st2" x1="481.2" y1="230.4" x2="464.4" y2="230.4"/>
<path class="st2" d="M518.5,186.9h-55.1c-2.7,0-4.9-2.2-4.9-4.9v-3c0-2.7,2.2-4.9,4.9-4.9h55.1c2.7,0,4.9,2.2,4.9,4.9v3
	C523.4,184.7,521.2,186.9,518.5,186.9z"/>
<ellipse class="st3" cx="516.3" cy="178.6" rx="1.3" ry="1.1"/>
<line class="st2" x1="481.2" y1="178.6" x2="464.4" y2="178.6"/>
<path class="st2" d="M518.5,173.9h-55.1c-2.7,0-4.9-2.2-4.9-4.9v-3c0-2.7,2.2-4.9,4.9-4.9h55.1c2.7,0,4.9,2.2,4.9,4.9v3
	C523.4,171.7,521.2,173.9,518.5,173.9z"/>
<ellipse class="st3" cx="516.3" cy="165.7" rx="1.3" ry="1.1"/>
<line class="st2" x1="481.2" y1="165.7" x2="464.4" y2="165.7"/>
<path class="st2" d="M518.5,199.8h-55.1c-2.7,0-4.9-2.2-4.9-4.9v-3c0-2.7,2.2-4.9,4.9-4.9h55.1c2.7,0,4.9,2.2,4.9,4.9v3
	C523.4,197.6,521.2,199.8,518.5,199.8z"/>
<ellipse class="st3" cx="516.3" cy="191.6" rx="1.3" ry="1.1"/>
<line class="st2" x1="481.2" y1="191.6" x2="464.4" y2="191.6"/>
<path class="st2" d="M518.5,161.1h-55.1c-2.7,0-4.9-2.2-4.9-4.9v-3c0-2.7,2.2-4.9,4.9-4.9h55.1c2.7,0,4.9,2.2,4.9,4.9v3
	C523.4,158.9,521.2,161.1,518.5,161.1z"/>
<ellipse class="st3" cx="516.3" cy="152.8" rx="1.3" ry="1.1"/>
<line class="st2" x1="481.2" y1="152.8" x2="464.4" y2="152.8"/>
<polygon class="st2" points="529.8,292.1 453.6,292.1 453.6,129.7 521,129.7 529.8,129.7 "/>
<text transform="matrix(1 0 0 1 459.7318 311.2926)"><tspan x="0" y="0" class="st0 st1">HPC cluster</tspan><tspan x="-2.7" y="14.4" class="st0 st1">(SSH server)</tspan></text>
<g>
	<g>
		<path class="st4" d="M158.8,209.8c-7.3,0-15.6,0-22.9,0c-0.4,0-2.4,0-4,1.8c-1,1.1-1.7,2.6-1.7,4.3v35.8c0,3.4,2.5,6.1,5.6,6.1
			h27.9c3.1,0,5.6-2.7,5.6-6.1v-31.6C169.5,220.1,159.2,209.8,158.8,209.8z"/>
		<line class="st5" x1="158.7" y1="220.4" x2="158.6" y2="210"/>
		<line class="st5" x1="169.5" y1="220.3" x2="158.7" y2="220.4"/>
		<path class="st6" d="M159.9,210.1"/>
	</g>
	<path class="st7" d="M150,236.2"/>
	<path class="st4" d="M161.7,233.4c-0.1-1.2-0.2-2.5-0.3-3.7c-1.2-0.5-2.5-1-3.7-1.5c-0.2,0.2-0.4,0.4-0.6,0.6c0,1,0,2,0.1,2.9
		c-0.8-0.3-1.7-0.6-2.5-0.8c-0.3,0.3-0.7,0.6-1,1c0,1-0.1,2-0.2,3c-0.9-0.2-1.8-0.4-2.7-0.6c-0.3,0.3-0.7,0.6-1,0.9
		c-1.3,1.1-2.5,2.2-3.8,3.3c-0.7-0.3-1.5-0.4-2.4-0.4c-3.8,0-6.8,3.1-6.8,6.9c0,3.8,3,6.9,6.8,6.9c3.8,0,6.8-3.1,6.8-6.9
		c0-0.5,0-1-0.2-1.5c3.6-3.1,7.1-6.2,10.7-9.3C161.1,233.9,161.4,233.7,161.7,233.4z M143.5,248.2c-1.7,0-3-1.4-3-3.1
		c0-1.7,1.3-3.1,3-3.1c1.7,0,3,1.4,3,3.1C146.5,246.8,145.2,248.2,143.5,248.2z"/>
</g>
<g>
	<g>
		<path class="st4" d="M422.7,211.7c-7.3,0-15.6,0-22.9,0c-0.4,0-2.4,0-4,1.8c-1,1.1-1.7,2.6-1.7,4.3v35.8c0,3.4,2.5,6.1,5.6,6.1
			h27.9c3.1,0,5.6-2.7,5.6-6.1v-31.6C433.3,221.9,423,211.7,422.7,211.7z"/>
		<line class="st5" x1="422.5" y1="222.2" x2="422.4" y2="211.9"/>
		<line class="st5" x1="433.3" y1="222.2" x2="422.5" y2="222.2"/>
		<path class="st6" d="M423.7,211.9"/>
	</g>
	<path class="st2" d="M403.7,249.1c0-3.4,0-6.9,0-10.3c0-2,1.5-3.7,3.3-3.7h13.3c1.8,0,3.3,1.7,3.3,3.7c0,3.5,0,7.1,0,10.6
		c-1.8,3.4-5.7,5.5-10,5.5C409.4,254.9,405.4,252.6,403.7,249.1z"/>
	<path class="st2" d="M407.6,235.1c-0.6-5.1,3.2-8.8,6.1-8.8c2.9,0,6.7,3.7,6.1,8.8"/>
	<path class="st2" d="M409.5,235.1c-0.3-3.7,2.3-6.4,4.3-6.3c2,0.1,4.4,2.7,4,6.3"/>
	<path class="st2" d="M416.5,244.4c0,1-0.5,1.9-1.4,2.4v2.6h-2.9v-2.6c-0.8-0.5-1.3-1.4-1.3-2.4c0-1.5,1.2-2.8,2.8-2.8
		C415.3,241.6,416.5,242.9,416.5,244.4z"/>
</g>
<text transform="matrix(1 0 0 1 386.371 203.4072)" class="st0 st1">Public key</text>
<text transform="matrix(1 0 0 1 120.2235 199.9079)" class="st0 st1">Private key</text>
<rect x="118.8" y="276.2" class="st8" width="331" height="7.6"/>
<text transform="matrix(1 0 0 1 126.3334 281.9292)" class="st0 st9">...10011010001010010101010101010001010111101011101011111010110110101000...</text>
<g>
	<g>
		<path class="st2" d="M491,99.7C446.6,83.4,375.1,63,285.2,63.3c-80.8,0.2-146.7,17-191.2,32.4"/>
		<g>
			<polygon points="80.8,100.4 96.8,86.1 95.1,95.4 102.2,101.4 			"/>
		</g>
	</g>
</g>
<g>
	<g>
		<path class="st2" d="M467.3,368.4c-44.7,15.3-111.1,31.9-192.4,31.7c-89.3-0.2-160.3-20.7-204.5-37.1"/>
		<g>
			<polygon points="480.6,363.6 459.2,362.5 466.3,368.7 464.6,377.9 			"/>
		</g>
	</g>
</g>
<rect x="90.2" y="21" class="st8" width="400.7" height="32.1"/>
<text transform="matrix(1 0 0 1 270.0038 30.3078)"><tspan x="0" y="0" class="st0 st10">Step 1. </tspan><tspan x="-99.3" y="15.6" class="st0 st10">The server proves its identity to the client.</tspan></text>
<rect x="82" y="419.4" class="st8" width="400.7" height="32.1"/>
<text transform="matrix(1 0 0 1 261.7688 428.7282)"><tspan x="0" y="0" class="st0 st10">Step 2. </tspan><tspan x="-121" y="15.6" class="st0 st10">The client proves the user’s identity to the server.</tspan></text>
</svg>
